<?xml version="1.0" encoding="utf-8"?>
<!-- Generator: Adobe Illustrator 16.0.0, SVG Export Plug-In . SVG Version: 6.00 Build 0)  -->
<!DOCTYPE svg PUBLIC "-//W3C//DTD SVG 1.1//EN" "http://www.w3.org/Graphics/SVG/1.1/DTD/svg11.dtd">
<svg version="1.1" id="Capa_1" xmlns="http://www.w3.org/2000/svg" xmlns:xlink="http://www.w3.org/1999/xlink" x="0px" y="0px"
	 width="573.563px" height="585.955px" viewBox="0 0 573.563 585.955" enable-background="new 0 0 573.563 585.955"
	 xml:space="preserve">
<title>134all</title>
<path fill="#3C3C3C" d="M591.545,209.514c0.063-21.318-7.95-41.869-22.428-57.519L468.09,36.489l-20.205,17.713l80.821,92.204
	c-37.672-5.626-72.771,20.354-78.396,58.024c-5.626,37.672,20.354,72.771,58.025,78.397c20.464,3.056,41.219-3.237,56.539-17.144
	v262.67c0.93,23.229-17.147,42.813-40.377,43.744c-23.23,0.93-42.814-17.147-43.745-40.377c-0.045-1.122-0.045-2.245,0-3.367v-151
	c-0.073-33.774-27.514-61.096-61.288-61.021c-0.067,0-0.136,0-0.203,0H378.85v-205.96c0-55.795-45.229-101.026-101.025-101.026
	H119.009c-55.796,0-101.025,45.231-101.025,101.026v471.459c0,7.439,6.029,13.47,13.47,13.47h333.928
	c7.438,0,13.47-6.029,13.47-13.47V343.273h40.411c18.858-0.074,34.207,15.152,34.281,34.013c0,0.022,0,0.045,0.001,0.067v150.8
	c-1.191,38.107,28.735,69.967,66.845,71.157c38.109,1.189,69.967-28.736,71.157-66.846c0.045-1.438,0.045-2.876,0-4.313
	L591.545,209.514L591.545,209.514z M351.91,568.294H44.923V110.305c0-40.917,33.169-74.086,74.086-74.086h158.813
	c40.918,0,74.087,33.169,74.087,74.086L351.91,568.294L351.91,568.294z M518.402,256.795c-23.247-0.111-42.003-19.049-41.892-42.296
	c0.111-23.248,19.048-42.004,42.296-41.893c23.169,0.11,41.894,18.925,41.894,42.094c0,23.248-18.847,42.095-42.095,42.095
	C518.538,256.795,518.469,256.795,518.402,256.795z"/>
<path fill="#3C3C3C" d="M267.452,85.116H133.288c-22.318,0-40.41,18.093-40.41,40.411v123.857c0,7.439,6.03,13.472,13.47,13.472
	h188.045c7.439,0,13.47-6.031,13.47-13.472V125.527C307.862,103.209,289.77,85.116,267.452,85.116z M280.921,235.848H119.819
	V125.527c0-7.439,6.029-13.472,13.47-13.472h134.164c7.438,0,13.47,6.031,13.47,13.472L280.921,235.848L280.921,235.848z"/>
<path fill="#3C3C3C" d="M204.748,359.034c-2.315-2.418-6.152-2.501-8.57-0.186c-0.063,0.061-0.125,0.122-0.186,0.186l-35.629,37.11
	c-21.688,23.277-21.688,59.361,0,82.64c20.864,22.096,55.691,23.093,77.786,2.227c0.764-0.721,1.507-1.463,2.228-2.227
	c21.688-23.277,21.688-59.361,0-82.64L204.748,359.034z"/>
</svg>
