<?xml version="1.0" encoding="utf-8"?>
<!-- Generator: Adobe Illustrator 16.0.0, SVG Export Plug-In . SVG Version: 6.00 Build 0)  -->
<!DOCTYPE svg PUBLIC "-//W3C//DTD SVG 1.1//EN" "http://www.w3.org/Graphics/SVG/1.1/DTD/svg11.dtd">
<svg version="1.1" id="Capa_1" xmlns="http://www.w3.org/2000/svg" xmlns:xlink="http://www.w3.org/1999/xlink" x="0px" y="0px"
	 width="549.202px" height="304.472px" viewBox="320.674 184.506 549.202 304.472"
	 enable-background="new 320.674 184.506 549.202 304.472" xml:space="preserve">
<title>Transportation</title>
<g>
	<path fill="#3C3C3C" d="M815.403,266.063H735.16c-4.722,0-8.55,3.828-8.55,8.551v176.902c0,4.723,3.828,8.551,8.55,8.551l0,0
		h26.533c4.718,20.153,24.88,32.666,45.033,27.948c13.871-3.248,24.701-14.078,27.948-27.948h26.651c4.722,0,8.55-3.828,8.55-8.551
		l0,0V320.537C869.84,290.467,845.472,266.099,815.403,266.063z M798.183,471.906c-11.261,0-20.389-9.129-20.389-20.39
		s9.128-20.39,20.389-20.39c11.262,0,20.39,9.129,20.39,20.39l0,0C818.566,462.774,809.441,471.898,798.183,471.906z
		 M852.775,442.966h-18.088c0-0.078,0-0.171-0.065-0.25c-0.21-0.894-0.46-1.775-0.736-2.631c0-0.145-0.105-0.289-0.145-0.434
		c-0.303-0.895-0.632-1.776-0.987-2.631l0,0c-0.368-0.868-0.775-1.724-1.21-2.552c-0.063-0.141-0.133-0.276-0.21-0.408
		c-0.422-0.803-0.869-1.578-1.316-2.342c-0.079-0.145-0.167-0.285-0.263-0.421c-0.5-0.775-1.013-1.525-1.565-2.249l-0.171-0.224
		c-0.539-0.71-1.118-1.395-1.71-2.065l-0.197-0.224c-0.605-0.684-1.25-1.315-1.907-1.96l-0.355-0.342
		c-0.658-0.618-1.315-1.211-2.026-1.776l-0.342-0.263c-1.478-1.169-3.038-2.229-4.67-3.17l-0.395-0.225
		c-0.789-0.434-1.592-0.842-2.42-1.223l-0.461-0.211c-0.842-0.381-1.696-0.736-2.564-1.052l-0.276-0.093
		c-0.855-0.303-1.724-0.578-2.631-0.815l-0.303-0.079c-0.908-0.236-1.829-0.434-2.749-0.604l-0.526-0.105
		c-0.921-0.145-1.855-0.276-2.789-0.355h-0.486c-0.987-0.079-1.974-0.131-2.986-0.131s-2,0-2.986,0.131h-0.486
		c-0.935,0.079-1.868,0.211-2.789,0.355l-0.526,0.105c-0.921,0.171-1.842,0.368-2.749,0.604l-0.303,0.079
		c-0.881,0.237-1.749,0.514-2.631,0.815l-0.276,0.093c-0.868,0.315-1.723,0.671-2.564,1.052l-0.461,0.211
		c-0.828,0.381-1.631,0.789-2.42,1.223l-0.395,0.225c-1.632,0.941-3.192,2.001-4.67,3.17l-0.343,0.263
		c-0.697,0.565-1.315,1.158-2.025,1.776l-0.355,0.342c-0.657,0.632-1.315,1.315-1.907,1.96l-0.197,0.224
		c-0.592,0.671-1.171,1.315-1.71,2.065l-0.171,0.224c-0.553,0.724-1.065,1.474-1.565,2.249c-0.096,0.136-0.184,0.276-0.264,0.421
		c-0.486,0.764-0.934,1.539-1.315,2.342c-0.078,0.132-0.148,0.268-0.21,0.408c-0.435,0.828-0.842,1.684-1.21,2.552l0,0
		c-0.355,0.854-0.685,1.736-0.987,2.631c0,0.145-0.092,0.289-0.145,0.434c-0.276,0.868-0.526,1.75-0.736,2.631
		c0,0.079,0,0.172-0.065,0.25h-18.049V283.165h71.692c20.631,0.021,37.351,16.741,37.372,37.372V442.966z"/>
	<path fill="#3C3C3C" d="M458.797,414.026c-16.9,0.02-31.705,11.326-36.175,27.624c-5.427-19.981-26.024-31.78-46.006-26.353
		c-19.982,5.427-31.78,26.024-26.354,46.006s26.024,31.78,46.006,26.354c12.838-3.487,22.866-13.516,26.354-26.354
		c5.449,19.976,26.06,31.752,46.035,26.303c19.976-5.448,31.752-26.059,26.303-46.034c-4.448-16.309-19.259-27.622-36.163-27.625
		V414.026z M386.447,471.906c-11.261,0-20.39-9.129-20.39-20.39s9.129-20.39,20.39-20.39s20.39,9.129,20.39,20.39l0,0
		C406.829,462.774,397.705,471.898,386.447,471.906z M458.797,471.906c-11.261,0-20.39-9.129-20.39-20.39s9.129-20.39,20.39-20.39
		s20.39,9.129,20.39,20.39l0,0C479.179,462.774,470.054,471.898,458.797,471.906z"/>
	<path fill="#3C3C3C" d="M650.853,414.026c-16.9,0.02-31.706,11.326-36.175,27.624c-5.428-19.981-26.025-31.78-46.007-26.353
		c-19.981,5.427-31.78,26.024-26.354,46.006c5.428,19.981,26.025,31.78,46.007,26.354c12.838-3.487,22.866-13.516,26.354-26.354
		c5.448,19.976,26.059,31.752,46.034,26.303c19.976-5.448,31.752-26.059,26.304-46.034c-4.448-16.309-19.26-27.622-36.163-27.625
		V414.026z M578.503,471.906c-11.261,0-20.389-9.129-20.389-20.39s9.128-20.39,20.389-20.39s20.39,9.129,20.39,20.39l0,0
		C598.885,462.774,589.76,471.898,578.503,471.906z M650.853,471.906c-11.261,0-20.39-9.129-20.39-20.39s9.129-20.39,20.39-20.39
		s20.39,9.129,20.39,20.39l0,0C671.235,462.774,662.111,471.898,650.853,471.906z"/>
	<path fill="#3C3C3C" d="M678.991,404.818c4.722,0,8.55-3.828,8.55-8.551s-3.828-8.551-8.55-8.551H359.336
		c-4.723,0-8.551,3.828-8.551,8.551s3.828,8.551,8.551,8.551H678.991z"/>
	<path fill="#3C3C3C" d="M833.701,342.992h-49.329v-41.438c0-4.723-3.828-8.551-8.551-8.551s-8.551,3.828-8.551,8.551v49.987
		c0,4.723,3.828,8.551,8.551,8.551h57.88c4.723,0,8.551-3.828,8.551-8.551C842.252,346.82,838.424,342.992,833.701,342.992z"/>
	<path fill="#3C3C3C" d="M709.101,184.506H329.224c-4.722,0-8.551,3.828-8.551,8.551v176.902c0,4.722,3.829,8.55,8.551,8.55l0,0
		h379.877c4.723,0,8.551-3.828,8.551-8.55l0,0V193.056C717.652,188.334,713.824,184.506,709.101,184.506z M700.511,361.408H337.775
		V201.606h362.736V361.408z"/>
	<path fill="#3C3C3C" d="M361.308,351.226c4.723,0,8.551-3.828,8.551-8.551l0,0V220.339c0-4.723-3.828-8.551-8.551-8.551
		s-8.551,3.828-8.551,8.551l0,0v122.337C352.758,347.398,356.586,351.226,361.308,351.226L361.308,351.226z"/>
	<path fill="#3C3C3C" d="M392.88,351.226c4.722,0,8.55-3.828,8.55-8.551l0,0V220.339c0-4.723-3.828-8.551-8.55-8.551
		c-4.723,0-8.551,3.828-8.551,8.551l0,0v122.337C384.329,347.398,388.157,351.226,392.88,351.226L392.88,351.226z"/>
	<path fill="#3C3C3C" d="M424.45,351.226c4.723,0,8.551-3.828,8.551-8.551l0,0V220.339c0-4.723-3.828-8.551-8.551-8.551
		c-4.722,0-8.55,3.828-8.55,8.551l0,0v122.337C415.9,347.398,419.728,351.226,424.45,351.226L424.45,351.226z"/>
	<path fill="#3C3C3C" d="M456.021,351.226c4.723,0,8.551-3.828,8.551-8.551l0,0V220.339c0-4.723-3.828-8.551-8.551-8.551
		s-8.551,3.828-8.551,8.551l0,0v122.337C447.47,347.398,451.299,351.226,456.021,351.226L456.021,351.226z"/>
	<path fill="#3C3C3C" d="M487.593,351.226c4.722,0,8.55-3.828,8.55-8.551l0,0V220.339c0-4.723-3.828-8.551-8.55-8.551
		c-4.723,0-8.551,3.828-8.551,8.551l0,0v122.337C479.042,347.398,482.87,351.226,487.593,351.226L487.593,351.226z"/>
	<path fill="#3C3C3C" d="M519.163,351.226c4.723,0,8.551-3.828,8.551-8.551l0,0V220.339c0-4.723-3.828-8.551-8.551-8.551
		c-4.722,0-8.55,3.828-8.55,8.551l0,0v122.337C510.613,347.398,514.441,351.226,519.163,351.226L519.163,351.226z"/>
	<path fill="#3C3C3C" d="M550.734,351.226c4.722,0,8.55-3.828,8.55-8.551l0,0V220.339c0-4.723-3.828-8.551-8.55-8.551
		c-4.723,0-8.551,3.828-8.551,8.551l0,0v122.337C542.183,347.398,546.011,351.226,550.734,351.226L550.734,351.226z"/>
	<path fill="#3C3C3C" d="M582.304,351.226c4.723,0,8.551-3.828,8.551-8.551l0,0V220.339c0-4.723-3.828-8.551-8.551-8.551
		c-4.722,0-8.55,3.828-8.55,8.551l0,0v122.337C573.755,347.398,577.583,351.226,582.304,351.226L582.304,351.226z"/>
	<path fill="#3C3C3C" d="M613.876,351.226c4.723,0,8.551-3.828,8.551-8.551l0,0V220.339c0-4.723-3.828-8.551-8.551-8.551
		s-8.551,3.828-8.551,8.551l0,0v122.337C605.325,347.398,609.153,351.226,613.876,351.226L613.876,351.226z"/>
	<path fill="#3C3C3C" d="M645.447,351.226c4.722,0,8.55-3.828,8.55-8.551l0,0V220.339c0-4.723-3.828-8.551-8.55-8.551
		c-4.723,0-8.551,3.828-8.551,8.551l0,0v122.337C636.896,347.398,640.724,351.226,645.447,351.226L645.447,351.226z"/>
	<path fill="#3C3C3C" d="M677.017,351.226c4.723,0,8.551-3.828,8.551-8.551l0,0V220.339c0-4.723-3.828-8.551-8.551-8.551
		s-8.551,3.828-8.551,8.551l0,0v122.337C668.467,347.398,672.295,351.226,677.017,351.226L677.017,351.226z"/>
</g>
</svg>
